<mxfile host="app.diagrams.net" agent="Mozilla/5.0 (Macintosh; Intel Mac OS X 10_15_7) AppleWebKit/537.36 (KHTML, like Gecko) Chrome/131.0.0.0 Safari/537.36 Edg/131.0.0.0" version="26.0.9">
  <diagram name="Page-1" id="I2RzQkV2m2pnWG8UewLT">
    <mxGraphModel dx="1462" dy="711" grid="0" gridSize="10" guides="1" tooltips="1" connect="1" arrows="1" fold="1" page="1" pageScale="1" pageWidth="709" pageHeight="236" math="0" shadow="0">
      <root>
        <mxCell id="0" />
        <mxCell id="1" parent="0" />
        <mxCell id="CC86WL3dVChZbo9_PTtD-1" value="" style="endArrow=block;html=1;rounded=0;endFill=1;strokeWidth=2;" parent="1" edge="1">
          <mxGeometry relative="1" as="geometry">
            <mxPoint x="8" y="166" as="sourcePoint" />
            <mxPoint x="700" y="166" as="targetPoint" />
          </mxGeometry>
        </mxCell>
        <mxCell id="CC86WL3dVChZbo9_PTtD-9" value="Group Operation" style="swimlane;horizontal=0;whiteSpace=wrap;html=1;fillColor=#e1d5e7;strokeColor=#9673a6;" parent="1" vertex="1">
          <mxGeometry x="62" y="26" width="190" height="130" as="geometry">
            <mxRectangle x="40" y="160" width="40" height="120" as="alternateBounds" />
          </mxGeometry>
        </mxCell>
        <mxCell id="CC86WL3dVChZbo9_PTtD-13" value="" style="rounded=1;whiteSpace=wrap;html=1;fillColor=#fff2cc;strokeColor=#d6b656;" parent="CC86WL3dVChZbo9_PTtD-9" vertex="1">
          <mxGeometry x="30" y="97.5" width="150" height="25" as="geometry" />
        </mxCell>
        <mxCell id="CC86WL3dVChZbo9_PTtD-14" value="" style="rounded=1;whiteSpace=wrap;html=1;fillColor=#d5e8d4;strokeColor=#82b366;" parent="CC86WL3dVChZbo9_PTtD-9" vertex="1">
          <mxGeometry x="30" y="7.5" width="150" height="25" as="geometry" />
        </mxCell>
        <mxCell id="CC86WL3dVChZbo9_PTtD-15" value="" style="rounded=1;whiteSpace=wrap;html=1;fillColor=#d5e8d4;strokeColor=#82b366;" parent="CC86WL3dVChZbo9_PTtD-9" vertex="1">
          <mxGeometry x="30" y="37.5" width="60" height="25" as="geometry" />
        </mxCell>
        <mxCell id="CC86WL3dVChZbo9_PTtD-16" value="" style="rounded=1;whiteSpace=wrap;html=1;fillColor=#fff2cc;strokeColor=#d6b656;" parent="CC86WL3dVChZbo9_PTtD-9" vertex="1">
          <mxGeometry x="120" y="37.5" width="60" height="25" as="geometry" />
        </mxCell>
        <mxCell id="CC86WL3dVChZbo9_PTtD-17" value="" style="rounded=1;whiteSpace=wrap;html=1;fillColor=#fff2cc;strokeColor=#d6b656;" parent="CC86WL3dVChZbo9_PTtD-9" vertex="1">
          <mxGeometry x="30" y="67.5" width="60" height="25" as="geometry" />
        </mxCell>
        <mxCell id="CC86WL3dVChZbo9_PTtD-18" value="" style="rounded=1;whiteSpace=wrap;html=1;fillColor=#d5e8d4;strokeColor=#82b366;" parent="CC86WL3dVChZbo9_PTtD-9" vertex="1">
          <mxGeometry x="120" y="67.5" width="60" height="25" as="geometry" />
        </mxCell>
        <mxCell id="CC86WL3dVChZbo9_PTtD-10" value="21" style="ellipse;whiteSpace=wrap;html=1;aspect=fixed;strokeWidth=2;" parent="1" vertex="1">
          <mxGeometry x="62" y="176" width="20" height="20" as="geometry" />
        </mxCell>
        <mxCell id="CC86WL3dVChZbo9_PTtD-11" value="57" style="ellipse;whiteSpace=wrap;html=1;aspect=fixed;strokeWidth=2;" parent="1" vertex="1">
          <mxGeometry x="272" y="176" width="20" height="20" as="geometry" />
        </mxCell>
        <mxCell id="CC86WL3dVChZbo9_PTtD-19" value="Surgery" style="swimlane;horizontal=0;whiteSpace=wrap;html=1;fillColor=#e1d5e7;strokeColor=#9673a6;" parent="1" vertex="1">
          <mxGeometry x="272" y="26" width="131" height="130" as="geometry">
            <mxRectangle x="311" y="26" width="40" height="120" as="alternateBounds" />
          </mxGeometry>
        </mxCell>
        <mxCell id="CC86WL3dVChZbo9_PTtD-26" value="Meth. SA with Punish" style="swimlane;horizontal=0;whiteSpace=wrap;html=1;fillColor=#e1d5e7;strokeColor=#9673a6;" parent="1" vertex="1">
          <mxGeometry x="425" y="26" width="208" height="130" as="geometry">
            <mxRectangle x="40" y="160" width="40" height="120" as="alternateBounds" />
          </mxGeometry>
        </mxCell>
        <mxCell id="CC86WL3dVChZbo9_PTtD-32" value="&lt;div&gt;12 days&lt;/div&gt;&lt;div&gt;&lt;br&gt;&lt;/div&gt;&lt;div&gt;&lt;br&gt;&lt;/div&gt;20 days" style="text;html=1;align=center;verticalAlign=middle;resizable=0;points=[];autosize=1;strokeColor=none;fillColor=none;" parent="CC86WL3dVChZbo9_PTtD-26" vertex="1">
          <mxGeometry x="20" y="30" width="70" height="70" as="geometry" />
        </mxCell>
        <mxCell id="CC86WL3dVChZbo9_PTtD-31" value="95" style="ellipse;whiteSpace=wrap;html=1;aspect=fixed;strokeWidth=2;" parent="1" vertex="1">
          <mxGeometry x="425" y="176" width="20" height="20" as="geometry" />
        </mxCell>
        <mxCell id="CC86WL3dVChZbo9_PTtD-52" value="Euthanasia" style="swimlane;horizontal=0;whiteSpace=wrap;html=1;" parent="1" vertex="1">
          <mxGeometry x="648" y="26" width="40" height="130" as="geometry">
            <mxRectangle x="40" y="160" width="40" height="120" as="alternateBounds" />
          </mxGeometry>
        </mxCell>
        <mxCell id="CC86WL3dVChZbo9_PTtD-39" value="" style="rounded=1;whiteSpace=wrap;html=1;fillColor=#fff2cc;strokeColor=#d6b656;" parent="1" vertex="1">
          <mxGeometry x="30" y="204" width="20" height="20" as="geometry" />
        </mxCell>
        <mxCell id="CC86WL3dVChZbo9_PTtD-41" value="single" style="text;html=1;align=center;verticalAlign=bottom;resizable=0;points=[];autosize=1;strokeColor=none;fillColor=none;" parent="1" vertex="1">
          <mxGeometry x="50" y="194" width="50" height="30" as="geometry" />
        </mxCell>
        <mxCell id="CC86WL3dVChZbo9_PTtD-40" value="" style="rounded=1;whiteSpace=wrap;html=1;fillColor=#d5e8d4;strokeColor=#82b366;" parent="1" vertex="1">
          <mxGeometry x="100" y="204" width="20" height="20" as="geometry" />
        </mxCell>
        <mxCell id="CC86WL3dVChZbo9_PTtD-42" value="group" style="text;html=1;align=center;verticalAlign=bottom;resizable=0;points=[];autosize=1;strokeColor=none;fillColor=none;" parent="1" vertex="1">
          <mxGeometry x="120" y="194" width="50" height="30" as="geometry" />
        </mxCell>
        <mxCell id="CC86WL3dVChZbo9_PTtD-44" value="Phase 1" style="text;html=1;align=center;verticalAlign=bottom;resizable=0;points=[];autosize=1;strokeColor=none;fillColor=none;" parent="1" vertex="1">
          <mxGeometry x="410" y="194" width="70" height="30" as="geometry" />
        </mxCell>
        <mxCell id="CC86WL3dVChZbo9_PTtD-48" value="" style="rounded=1;whiteSpace=wrap;html=1;fillColor=#e1d5e7;strokeColor=#9673a6;" parent="1" vertex="1">
          <mxGeometry x="390" y="204" width="20" height="20" as="geometry" />
        </mxCell>
        <mxCell id="CC86WL3dVChZbo9_PTtD-46" value="Phase 2" style="text;html=1;align=center;verticalAlign=bottom;resizable=0;points=[];autosize=1;strokeColor=none;fillColor=none;" parent="1" vertex="1">
          <mxGeometry x="520" y="194" width="70" height="30" as="geometry" />
        </mxCell>
        <mxCell id="CC86WL3dVChZbo9_PTtD-49" value="" style="rounded=1;whiteSpace=wrap;html=1;fillColor=#dae8fc;strokeColor=#6c8ebf;" parent="1" vertex="1">
          <mxGeometry x="500" y="204" width="20" height="20" as="geometry" />
        </mxCell>
        <mxCell id="CC86WL3dVChZbo9_PTtD-47" value="Phase 3" style="text;html=1;align=center;verticalAlign=bottom;resizable=0;points=[];autosize=1;strokeColor=none;fillColor=none;" parent="1" vertex="1">
          <mxGeometry x="630" y="194" width="70" height="30" as="geometry" />
        </mxCell>
        <mxCell id="CC86WL3dVChZbo9_PTtD-51" value="" style="rounded=1;whiteSpace=wrap;html=1;fillColor=#f8cecc;strokeColor=#b85450;" parent="1" vertex="1">
          <mxGeometry x="610" y="204" width="20" height="20" as="geometry" />
        </mxCell>
        <mxCell id="CC86WL3dVChZbo9_PTtD-117" value="" style="rounded=1;whiteSpace=wrap;html=1;fillColor=#fff2cc;strokeColor=#d6b656;" parent="1" vertex="1">
          <mxGeometry x="30" y="442" width="20" height="20" as="geometry" />
        </mxCell>
        <mxCell id="CC86WL3dVChZbo9_PTtD-118" value="single" style="text;html=1;align=center;verticalAlign=bottom;resizable=0;points=[];autosize=1;strokeColor=none;fillColor=none;" parent="1" vertex="1">
          <mxGeometry x="50" y="432" width="50" height="30" as="geometry" />
        </mxCell>
        <mxCell id="CC86WL3dVChZbo9_PTtD-119" value="" style="rounded=1;whiteSpace=wrap;html=1;fillColor=#d5e8d4;strokeColor=#82b366;" parent="1" vertex="1">
          <mxGeometry x="100" y="442" width="20" height="20" as="geometry" />
        </mxCell>
        <mxCell id="CC86WL3dVChZbo9_PTtD-120" value="group" style="text;html=1;align=center;verticalAlign=bottom;resizable=0;points=[];autosize=1;strokeColor=none;fillColor=none;" parent="1" vertex="1">
          <mxGeometry x="120" y="432" width="50" height="30" as="geometry" />
        </mxCell>
        <mxCell id="CC86WL3dVChZbo9_PTtD-121" value="Phase 1" style="text;html=1;align=center;verticalAlign=bottom;resizable=0;points=[];autosize=1;strokeColor=none;fillColor=none;" parent="1" vertex="1">
          <mxGeometry x="410" y="432" width="70" height="30" as="geometry" />
        </mxCell>
        <mxCell id="CC86WL3dVChZbo9_PTtD-122" value="" style="rounded=1;whiteSpace=wrap;html=1;fillColor=#e1d5e7;strokeColor=#9673a6;" parent="1" vertex="1">
          <mxGeometry x="390" y="442" width="20" height="20" as="geometry" />
        </mxCell>
        <mxCell id="CC86WL3dVChZbo9_PTtD-123" value="Phase 2" style="text;html=1;align=center;verticalAlign=bottom;resizable=0;points=[];autosize=1;strokeColor=none;fillColor=none;" parent="1" vertex="1">
          <mxGeometry x="520" y="432" width="70" height="30" as="geometry" />
        </mxCell>
        <mxCell id="CC86WL3dVChZbo9_PTtD-124" value="" style="rounded=1;whiteSpace=wrap;html=1;fillColor=#dae8fc;strokeColor=#6c8ebf;" parent="1" vertex="1">
          <mxGeometry x="500" y="442" width="20" height="20" as="geometry" />
        </mxCell>
        <mxCell id="CC86WL3dVChZbo9_PTtD-129" value="42" style="ellipse;whiteSpace=wrap;html=1;aspect=fixed;strokeWidth=2;" parent="1" vertex="1">
          <mxGeometry x="184" y="176" width="20" height="20" as="geometry" />
        </mxCell>
        <mxCell id="CC86WL3dVChZbo9_PTtD-152" value="" style="rounded=1;whiteSpace=wrap;html=1;fillColor=#fff2cc;strokeColor=#d6b656;" parent="1" vertex="1">
          <mxGeometry x="30" y="680" width="20" height="20" as="geometry" />
        </mxCell>
        <mxCell id="CC86WL3dVChZbo9_PTtD-153" value="single" style="text;html=1;align=center;verticalAlign=bottom;resizable=0;points=[];autosize=1;strokeColor=none;fillColor=none;" parent="1" vertex="1">
          <mxGeometry x="50" y="670" width="50" height="30" as="geometry" />
        </mxCell>
        <mxCell id="CC86WL3dVChZbo9_PTtD-154" value="" style="rounded=1;whiteSpace=wrap;html=1;fillColor=#d5e8d4;strokeColor=#82b366;" parent="1" vertex="1">
          <mxGeometry x="100" y="680" width="20" height="20" as="geometry" />
        </mxCell>
        <mxCell id="CC86WL3dVChZbo9_PTtD-155" value="group" style="text;html=1;align=center;verticalAlign=bottom;resizable=0;points=[];autosize=1;strokeColor=none;fillColor=none;" parent="1" vertex="1">
          <mxGeometry x="120" y="670" width="50" height="30" as="geometry" />
        </mxCell>
        <mxCell id="CC86WL3dVChZbo9_PTtD-156" value="Phase 1" style="text;html=1;align=center;verticalAlign=bottom;resizable=0;points=[];autosize=1;strokeColor=none;fillColor=none;" parent="1" vertex="1">
          <mxGeometry x="410" y="670" width="70" height="30" as="geometry" />
        </mxCell>
        <mxCell id="CC86WL3dVChZbo9_PTtD-157" value="" style="rounded=1;whiteSpace=wrap;html=1;fillColor=#e1d5e7;strokeColor=#9673a6;" parent="1" vertex="1">
          <mxGeometry x="390" y="680" width="20" height="20" as="geometry" />
        </mxCell>
        <mxCell id="CC86WL3dVChZbo9_PTtD-158" value="Phase 2" style="text;html=1;align=center;verticalAlign=bottom;resizable=0;points=[];autosize=1;strokeColor=none;fillColor=none;" parent="1" vertex="1">
          <mxGeometry x="520" y="670" width="70" height="30" as="geometry" />
        </mxCell>
        <mxCell id="CC86WL3dVChZbo9_PTtD-159" value="" style="rounded=1;whiteSpace=wrap;html=1;fillColor=#dae8fc;strokeColor=#6c8ebf;" parent="1" vertex="1">
          <mxGeometry x="500" y="680" width="20" height="20" as="geometry" />
        </mxCell>
        <mxCell id="CC86WL3dVChZbo9_PTtD-196" value="Phase 3" style="text;html=1;align=center;verticalAlign=bottom;resizable=0;points=[];autosize=1;strokeColor=none;fillColor=none;" parent="1" vertex="1">
          <mxGeometry x="630" y="670" width="70" height="30" as="geometry" />
        </mxCell>
        <mxCell id="CC86WL3dVChZbo9_PTtD-197" value="" style="rounded=1;whiteSpace=wrap;html=1;fillColor=#f8cecc;strokeColor=#b85450;" parent="1" vertex="1">
          <mxGeometry x="610" y="680" width="20" height="20" as="geometry" />
        </mxCell>
        <mxCell id="fP5M8shgC96ckiccFGSR-3" value="PND" style="text;html=1;align=center;verticalAlign=middle;resizable=0;points=[];autosize=1;strokeColor=none;fillColor=none;fontStyle=1" parent="1" vertex="1">
          <mxGeometry y="173" width="43" height="26" as="geometry" />
        </mxCell>
        <mxCell id="fP5M8shgC96ckiccFGSR-6" value="Behavior" style="text;html=1;align=left;verticalAlign=middle;resizable=0;points=[];autosize=1;strokeColor=none;fillColor=none;fontStyle=1" parent="1" vertex="1">
          <mxGeometry width="65" height="26" as="geometry" />
        </mxCell>
        <mxCell id="fP5M8shgC96ckiccFGSR-7" value="fMRI" style="text;html=1;align=left;verticalAlign=middle;resizable=0;points=[];autosize=1;strokeColor=none;fillColor=none;fontStyle=1" parent="1" vertex="1">
          <mxGeometry y="236" width="43" height="26" as="geometry" />
        </mxCell>
        <mxCell id="fP5M8shgC96ckiccFGSR-8" value="Manipulate" style="text;html=1;align=left;verticalAlign=middle;resizable=0;points=[];autosize=1;strokeColor=none;fillColor=none;fontStyle=1" parent="1" vertex="1">
          <mxGeometry y="472" width="77" height="26" as="geometry" />
        </mxCell>
      </root>
    </mxGraphModel>
  </diagram>
</mxfile>
